<svg xmlns="http://www.w3.org/2000/svg" xmlns:dc="http://purl.org/dc/elements/1.1/" xmlns:ns3="http://creativecommons.org/ns#" xmlns:ns5="http://design.blush" xmlns:rdf="http://www.w3.org/1999/02/22-rdf-syntax-ns#" xmlns:xlink="http://www.w3.org/1999/xlink" width="264px" height="280px" viewBox="0 0 264 280" version="1.1">
    <title id="circle_Title">Avataaar/Circle</title>
    <desc>Created with python_avatars</desc>
    <defs>
        <circle id="circle_path-1" cx="120" cy="120" r="120" />
        <path d="M-3.19744231e-14,160 L-3.19744231e-14,-1.42108547e-14 L264,-1.42108547e-14 L264,160 L252,160 C252,226.27417 198.27417,280 132,280 C65.72583,280 12,226.27417 12,160 L12,160 L-3.19744231e-14,160 Z" id="circle_path-3" />
        <path d="M100,0 C130.927946,-5.68137151e-15 156,25.072054 156,56 L156.000809,62.1660527 C161.675838,63.1185422 166,68.05429 166,74 L166,88 C166,94.0524166 161.519235,99.0582945 155.693975,99.8813638 C153.627928,119.686472 141.237929,136.421678 124.001014,144.610469 L124,163 L128,163 C167.764502,163 200,195.235498 200,235 L200,244 L0,244 L0,235 C-4.86974701e-15,195.235498 32.235498,163 72,163 L76,163 L75.9999836,144.610943 C58.7625487,136.422324 46.3721119,119.686854 44.3051107,99.8809698 C38.480765,99.0582945 34,94.0524166 34,88 L34,74 C34,68.053942 38.3246685,63.1179645 44.0001873,62.1658855 L44,56 C44,25.072054 69.072054,5.68137151e-15 100,0 Z" id="circle_path-5" />
        <path d="M83,36.3476251 C83,52.6289957 105.161905,65.8276544 132.5,65.8276544 C159.838095,65.8276544 182,52.6289957 182,36.3476251 C182,34.9853134 181.844841,33.6445843 181.544472,32.3313638 C210.784239,41.4879251 232,68.792221 232,101.051724 L232,110 L32,110 L32,101.051724 C32,68.3970853 53.7386736,40.8197864 83.5337207,32.0021267 C83.1821692,33.4207025 83,34.871494 83,36.3476251 Z" id="circle_path-7" />
        <rect id="circle_path-9" x="0" y="0" width="264" height="280" />
        <path d="M74,0 C114.869071,0 148,33.1309285 148,74 L148,84.1482318 L148,197.608051 C135.525121,187.236892 119.490913,181 102,181 L102,181 L98,181 L98,162.610951 C115.530782,154.282984 128.048193,137.114792 129.791419,116.867187 C135.569129,116.002364 140,111.018625 140,105 L140,105 L140,92 C140,87.3536213 137.359271,83.3240177 133.496777,81.3301515 C132.723933,81.0500337 131.951808,80.748163 131.180891,80.4262497 C130.794819,80.3202581 130.400778,80.2331546 130,80.1659169 L130,80.1659169 L130.000458,79.9172528 C117.224481,74.2339715 104.877985,63.0706967 96.1104311,47.8848473 C93.1752556,42.8009742 90.8310687,37.5951441 89.0661426,32.3970356 C80.4313947,42.9409152 67.7445474,53.6023901 52.3415164,62.4953343 C42.777598,68.0170651 33.1467898,72.2910056 24,75.2659587 L24.0003852,137.246608 C29.6019576,148.318362 38.7728825,157.277529 50,162.610951 L50,162.610951 L50,181 L46,181 C38.3273639,181 30.9350359,182.200142 24.0004995,184.422941 L24,230 C24,244.105888 13.5691766,255.775526 0,257.716445 L0,74 C0,33.1309285 33.1309285,0 74,0 Z" id="circle_path-11" />
    </defs>
    <g id="circle_Avataaar/Circle" stroke="none" stroke-width="1" fill="none" fill-rule="evenodd">
        <g id="circle_Circle" transform="translate(12.000000, 40.000000)">
            <mask id="circle_mask-2" fill="white">
                <use xlink:href="#circle_path-1" />
            </mask>
            <use id="circle_Background-Color" fill="#525252" xlink:href="#circle_path-1" />
            <g id="circle_Fabric-Color" mask="url(#circle_mask-2)" fill="">
                <rect id="circle_ðŸ–Color" x="0" y="0" width="240" height="240" />
            </g>
        </g>
        <mask id="circle_mask-4" fill="white">
            <use xlink:href="#circle_path-3" />
        </mask>
        <g id="circle_Mask" />
        <g id="circle_Avataaar" mask="url(#circle_mask-4)">
            <g id="circle_Body" transform="translate(32.000000, 36.000000)">
                <mask id="circle_mask-6" fill="white">
                    <use xlink:href="#circle_path-5" />
                </mask>
                <use fill="#D0C6AC" xlink:href="#circle_path-5" />
                <g id="circle_Skin-Color" mask="url(#circle_mask-6)" fill="#F8D25C">
                    <g transform="translate(-32.000000, 0.000000)" id="circle_Color">
                        <rect x="0" y="0" width="264" height="244" />
                    </g>
                </g>
                <path d="M44,94 C44,124.927946 69.072054,150 100,150 C130.927946,150 156,124.927946 156,94 L156,94 L156,102 C156,132.927946 130.927946,158 100,158 C69.072054,158 44,132.927946 44,102 Z" id="circle_Neck-Shadow" fill-opacity="0.100000001" fill="#000000" mask="url(#circle_mask-6)" />
            </g>
            <g id="circle_Clothing" transform="translate(0.000000, 170.000000)">
                
            <metadata id="gladiator_metadata28">
    <rdf:RDF>
      <ns3:Work rdf:about="">
        <dc:format>image/svg+xml</dc:format>
        <dc:type rdf:resource="http://purl.org/dc/dcmitype/StillImage" />
        <dc:title />
      </ns3:Work>
    </rdf:RDF>
  </metadata>
  <defs id="gladiator_defs26" />
  <g id="gladiator_Clothing/Gladiator" stroke="none" stroke-width="1" fill="none" fill-rule="evenodd">
    <g id="gladiator_Armor" transform="translate(56.000000, 27.000000)">
      <path id="gladiator_Fill-1" d="M 43.599609 1.0859375 C 25.891609 1.0859375 14.720703 7.0800781 14.720703 7.0800781 L 14.720703 38.820312 C 14.720703 39.109747 14.746878 39.392515 14.763672 39.677734 L 0.56054688 53.388672 L 0.56054688 83.634766 L 62.761719 83.634766 L 90.458984 83.634766 L 152.66016 83.634766 L 152.66016 53.388672 L 138.69922 39.912109 C 138.72634 39.550498 138.75391 39.188863 138.75391 38.820312 L 138.75391 7.0800781 C 138.75391 7.0800781 127.58495 1.0859375 109.87695 1.0859375 L 109.87695 22.884766 L 90.458984 22.884766 L 62.761719 22.884766 L 43.599609 22.884766 L 43.599609 1.0859375 z " transform="translate(-0.56,-1.0865385)" style="fill:#60ade6;fill-opacity:1" />
      <g id="gladiator_Fabric-Color" mask="url(#gladiator_fabric-mask)" fill="#FFDEB5">
        <rect x="0" y="0" width="264" height="110" id="gladiator_rect10" />
      </g>
      <mask id="gladiator_fabric-mask" fill="white">
        <use xlink:href="#gladiator_Fill-1" id="gladiator_use13" />
        <path d="m 14.1613,5.9939 c 0,0 11.17,-5.994 28.878,-5.994 v 37.734 c 0,7.975 -6.464,14.44 -14.439,14.44 v 0 c -7.974,0 -14.439,-6.465 -14.439,-14.44 z" id="gladiator_use15" fill="#60ade6" ns5:color="Top-500" />
        <path d="m 138.1945,5.9939 c 0,0 -11.17,-5.994 -28.878,-5.994 v 37.734 c 0,7.975 6.464,14.44 14.439,14.44 7.974,0 14.439,-6.465 14.439,-14.44 z" id="gladiator_use17" fill="#60ade6" ns5:color="Top-500" />
      </mask>
      <g id="gladiator_g849">
        <path d="M36.5011,37.0515 C36.5011,40.9635 33.3301,44.1345 29.4181,44.1345 C25.5051,44.1345 22.3341,40.9635 22.3341,37.0515 C22.3341,33.1395 25.5051,29.9685 29.4181,29.9685 C33.3301,29.9685 36.5011,33.1395 36.5011,37.0515" id="gladiator_Fill-10" fill-opacity=".24" fill="#000" />
        <path d="M130.839,37.0515 C130.839,40.9635 127.667,44.1345 123.755,44.1345 C119.843,44.1345 116.672,40.9635 116.672,37.0515 C116.672,33.1395 119.843,29.9685 123.755,29.9685 C127.667,29.9685 130.839,33.1395 130.839,37.0515" id="gladiator_Fill-12" fill-opacity=".24" fill="#000" />
        <path d="M33.6227,82.5486 L62.2017,82.5486 L89.8987,82.5486 L119.0577,82.5486 C112.9127,64.8676 96.1137,52.1736 76.3397,52.1736 C56.5667,52.1736 39.7687,64.8676 33.6227,82.5486" id="gladiator_Fill-14" fill-opacity=".24" fill="#000" />
        <path id="gladiator_Fill-2-8" d="m 43.038543,21.799022 v 15.935547 c 0,7.975 -6.464453,14.439453 -14.439453,14.439453 -7.684602,0 -13.948588,-6.008382 -14.394531,-13.582031 L 11.5112,41.1916 c 0.651,8.879001 8.042891,15.886719 17.08789,15.886719 9.474001,0 17.154297,-7.680297 17.154297,-17.154297 v -18.125 z" style="fill:#000000;fill-opacity:0.23999999" />
        <path id="gladiator_Fill-6-0" d="m 106.60281,21.799022 v 18.125 c 0,9.474 7.67834,17.152344 17.15235,17.152344 9.04599,-10e-7 16.43784,-7.005766 17.08984,-15.884766 l -2.69336,-2.599609 c -0.44594,7.573649 -6.71188,13.582031 -14.39648,13.582031 -7.975,0 -14.4375,-6.464453 -14.4375,-14.439453 V 21.799022 Z" style="fill:#000000;fill-opacity:0.23999999" />
      </g>
    </g>
  </g>
</g>
            <g id="circle_Face" transform="translate(76.000000, 82.000000)" fill="#000000">
                <g id="circle_Mouth" transform="translate(2.000000, 52.000000)">    
                    
                <defs>
        <path d="M35.117844,15.1280772 C36.1757121,24.6198025 44.2259873,32 54,32 C63.8042055,32 71.8740075,24.574136 72.8917593,15.0400546 C72.9736685,14.272746 72.1167429,13 71.042767,13 C56.1487536,13 44.7379213,13 37.0868244,13 C36.0066168,13 35.0120058,14.1784435 35.117844,15.1280772 Z" id="smile_path-1" />
    </defs>
    <g id="smile_Mouth/Smile" stroke="none" stroke-width="1" fill="none" fill-rule="evenodd">
        <mask id="smile_mask-2" fill="white">
            <use xlink:href="#smile_path-1" />
        </mask>
        <use id="smile_Mouth" fill-opacity="0.699999988" fill="#000000" xlink:href="#smile_path-1" />
        <path d="M44,2 L65,2 C67.7614237,2 70,4.23857625 70,7 L70,13 C70,15.7614237 67.7614237,18 65,18 L44,18 C41.2385763,18 39,15.7614237 39,13 L39,7 C39,4.23857625 41.2385763,2 44,2 Z" id="smile_Teeth" fill="#FFFFFF" mask="url(#smile_mask-2)" />
        <g id="smile_Tongue" mask="url(#smile_mask-2)" fill="#FF4F6D">
            <g transform="translate(38.000000, 24.000000)">
                <circle cx="11" cy="11" r="11" />
                <circle cx="21" cy="11" r="11" />
            </g>
        </g>
    </g>
</g>
                <g id="circle_Nose" transform="translate(28.000000, 40.000000)" fill-opacity="0.16">
                    
                <g id="default_Nose/Default" stroke="none" stroke-width="1" fill="none" fill-rule="evenodd" fill-opacity="0.16">
        <path d="M16,8 C16,12.418278 21.372583,16 28,16 L28,16 C34.627417,16 40,12.418278 40,8" id="default_Nose" fill="#000000" />
    </g>
</g>
                <g id="circle_Eyes" transform="translate(0.000000, 8.000000)">
                    
                <g id="side_Eyes/Side-ðŸ˜’" stroke="none" stroke-width="1" fill="none" fill-rule="evenodd" fill-opacity="0.599999964">
        <path d="M26.9975803,16 C30.5023373,16 33.8908881,17.3142215 36.0178027,19.5426914 C36.76432,20.2169977 37.3413788,21.076429 37.6755948,22.0487876 C37.7255661,22.1661456 37.7719796,22.285947 37.8153518,22.4071242 C37.9093375,22.6697105 37.9470658,22.9204105 37.9396792,23.1420431 C37.9792021,23.4217112 38,23.7084268 38,24 C38,27.3137085 35.3137085,30 32,30 C28.6862915,30 26,27.3137085 26,24 C26,22.6248836 26.4625977,21.3578126 27.2406617,20.3459186 C27.1600773,20.3443723 27.0789132,20.3437884 26.9975803,20.3437884 C23.2572061,20.3437884 19.8737584,21.5787519 17.4375392,23.5716412 C16.5467928,24.3002944 15.6201012,23.5583844 16.1601674,22.4473116 C18.006676,18.648508 22.1644225,16 26.9975803,16 Z" id="side_Eye" fill="#000000" />
        <path d="M84.9975803,16 C88.5023373,16 91.8908881,17.3142215 94.0178027,19.5426914 C94.76432,20.2169977 95.3413788,21.076429 95.6755948,22.0487876 C95.7255661,22.1661456 95.7719796,22.285947 95.8153518,22.4071242 C95.9093375,22.6697105 95.9470658,22.9204105 95.9396792,23.1420431 C95.9792021,23.4217112 96,23.7084268 96,24 C96,27.3137085 93.3137085,30 90,30 C86.6862915,30 84,27.3137085 84,24 C84,22.6248836 84.4625977,21.3578126 85.2406617,20.3459186 C85.1600773,20.3443723 85.0789132,20.3437884 84.9975803,20.3437884 C81.2572061,20.3437884 77.8737584,21.5787519 75.4375392,23.5716412 C74.5467928,24.3002944 73.6201012,23.5583844 74.1601674,22.4473116 C76.006676,18.648508 80.1644225,16 84.9975803,16 Z" id="side_Eye" fill="#000000" />
    </g>
</g>
                <g id="circle_Eyebrow" fill-opacity="0.599999964">
                    
                </g>
            </g>
            <g id="circle_Top">
                
            <g id="curly_2_Hairstyle/Curly 2" stroke="none" stroke-width="1" fill="none" fill-rule="evenodd">
        <g id="curly_2_Accessory" transform="translate(62.000000, 85.000000)"><defs>
        <filter x="-3.0%" y="-8.0%" width="106.1%" height="116.0%" filterUnits="objectBoundingBox" id="kurt_filter-1">
            <feOffset dx="0" dy="2" in="SourceAlpha" result="shadowOffsetOuter1" />
            <feColorMatrix values="0 0 0 0 0   0 0 0 0 0   0 0 0 0 0  0 0 0 0.16 0" type="matrix" in="shadowOffsetOuter1" result="shadowMatrixOuter1" />
            <feMerge>
                <feMergeNode in="shadowMatrixOuter1" />
                <feMergeNode in="SourceGraphic" />
            </feMerge>
        </filter>
    </defs>
    <g id="kurt_Top/_Resources/Kurt" stroke="none" stroke-width="1" fill="none" fill-rule="evenodd">
        <g id="kurt_Kurts" filter="url(#kurt_filter-1)" transform="translate(5.000000, 2.000000)" fill-rule="nonzero">
            <path d="M66,11.1111111 C54.9625586,11.1111111 53.3705645,2.0266011 30.6705882,0.740740741 C7.98552275,-0.283199952 0.815225204,6.4494855 0.776470588,11.1111111 C0.813236892,15.4042795 -0.352293566,26.5612661 14.3647059,39.6296296 C29.1367705,55.1420807 44.2704162,49.8818301 49.6941176,44.8148148 C55.1352081,42.4731118 61.3403442,21.4596351 66,21.4814815 C70.6596558,21.5033279 76.8647919,42.4731118 82.3058824,44.8148148 C87.7295838,49.8818301 102.86323,55.1420807 117.635294,39.6296296 C132.352294,26.5612661 131.186763,15.4042795 131.223529,11.1111111 C131.184775,6.4494855 124.014477,-0.283199952 101.329412,0.740740741 C78.6294355,2.0266011 77.0374414,11.1111111 66,11.1111111 Z" id="kurt_It!" fill="#F4F4F4" />
            <path d="M55.1294118,21.4814815 C55.5103632,13.8233491 42.2156493,5.64243259 27.9529412,5.92592593 C13.6973442,6.22450879 11.8417942,15.3786982 11.6470588,18.8888889 C11.2982286,27.0220633 20.014463,45.3037598 36.1058824,44.8148148 C52.1972736,44.305848 54.9092435,26.5344305 55.1294118,21.4814815 Z" id="kurt_Did" fill="#2F383B" />
            <path d="M120.352941,21.4814815 C120.733893,13.8233491 107.439179,5.64243259 93.1764706,5.92592593 C78.9208736,6.22450879 77.0653236,15.3786982 76.8705882,18.8888889 C76.521758,27.0220633 85.2379924,45.3037598 101.329412,44.8148148 C117.420803,44.305848 120.132773,26.5344305 120.352941,21.4814815 Z" id="kurt_Courtney" fill="#2F383B" transform="translate(98.611765, 25.370370) scale(-1, 1) translate(-98.611765, -25.370370) " />
        </g>
    </g>
</g>
        <g id="curly_2_Hair-Color" transform="translate(14.000000, 15.000000)" fill="#ECDCBF">
            <path d="M216.5881,166.6309 C203.7661,162.1819 187.9831,154.9159 190.4341,136.3909 C192.8861,117.8639 200.5141,58.4729 188.2551,40.2199 C181.1771,29.6809 173.3851,26.9209 167.6111,28.7549 C167.2761,20.8949 150.4001,-0.0001 111.9721,-0.0001 C64.0231,-0.0001 33.5101,27.4019 32.1481,57.9279 C30.9331,85.1449 48.2211,98.5219 48.2211,115.1399 C48.2211,131.7589 0.0001,162.7149 0.0001,197.9609 C0.0001,218.0199 11.8201,227.7699 22.0101,232.4539 C30.8221,206.8599 53.6471,187.8049 81.3261,184.4439 C81.3241,184.4389 81.3221,184.4339 81.3211,184.4289 C84.1941,184.0789 87.1191,183.8949 90.0881,183.8949 L94.0881,183.8949 L94.0881,165.5059 C82.7401,160.1149 73.4991,151.0189 67.9151,139.7829 C75.5601,127.8209 98.0041,129.4979 99.4401,109.9639 C100.8021,91.4379 85.4271,94.7069 85.4271,70.4609 C85.4271,46.2139 121.2601,23.4769 159.2531,38.9319 C156.9241,50.8449 162.3971,64.5989 171.0911,83.2649 C182.4751,107.7039 169.5561,130.5699 161.8481,149.8369 C156.5631,156.4469 149.8141,161.8349 142.0881,165.5049 L142.0871,183.8949 L146.0871,183.8949 C150.4381,183.8949 154.6941,184.2889 158.8321,185.0289 C158.8331,185.0339 158.8341,185.0379 158.8351,185.0429 C184.7301,189.6719 205.8151,208.1319 214.1861,232.5179 C227.1411,226.8239 240.8351,216.9049 240.8351,201.5029 C240.8351,178.8909 229.9381,171.2629 216.5881,166.6309" id="curly_2_Fill-1" ns5:color="Hair-500" />
            <path d="M141.3957,29.5947 C141.3957,29.5947 109.2477,41.3097 109.2477,51.3897 C109.2477,61.4697 123.4147,62.5597 123.4147,69.3707 C123.4147,76.1817 111.1817,75.3167 109.2477,83.5367 C107.0677,92.8007 120.9617,98.7937 120.9617,98.7937 C120.9617,98.7937 111.4787,92.6137 113.0617,85.9897 C115.2427,76.8657 131.5877,79.7227 131.5877,71.2777 C131.5877,62.8317 121.7797,60.6527 121.7797,50.0277 C121.7797,43.7617 154.3157,37.0527 159.2527,38.9317 C164.1897,40.8107 151.4757,27.4147 141.3957,29.5947" id="curly_2_Fill-4" ns5:color="Hair-500" />
            <path d="M180.6262,189.29 C176.1682,180.238 165.4842,172.572 161.8482,168.538 C156.6912,162.816 161.8482,149.837 161.8482,149.837 C156.5632,156.447 149.8142,161.835 142.0882,165.505 L142.0872,183.894 L146.0872,183.894 C158.6052,183.894 170.3722,187.094 180.6262,192.711 L180.6262,189.29 Z" id="curly_2_Fill-8" fill-opacity=".6" fill="#000" />
            <path d="M67.9152,139.7832 C66.4152,142.1292 65.4742,144.9902 65.3852,148.6502 C64.9162,167.8642 72.1902,172.3482 81.3152,184.4292 C84.1902,184.0802 87.1172,183.8942 90.0872,183.8942 L94.0872,183.8942 L94.0872,165.5062 C82.7402,160.1152 73.4992,151.0182 67.9152,139.7832" id="curly_2_Fill-10" fill-opacity=".6" fill="#000" />
        </g>
        <path d="M132.7844,30.4277 C79.8404,30.4277 65.1284,63.9377 68.6704,87.3667 C70.7064,100.8367 89.5234,107.0277 92.0994,117.3357 C94.8244,128.2327 74.9364,147.5757 69.2154,155.2037 C63.6634,162.6067 30.2054,189.3097 58.3044,216.2007 C68.7964,207.2177 81.8994,201.1957 96.3264,199.4447 C87.1964,187.3527 79.9154,182.8717 80.3854,163.6507 C80.9304,141.3317 112.7224,148.3297 114.4394,124.9637 C115.8024,106.4377 100.4274,109.7067 100.4274,85.4607 C100.4274,61.2137 136.2604,38.4767 174.2534,53.9317 C174.2534,53.9317 171.5584,53.2387 174.2534,53.9317 C177.1004,46.5017 172.7674,30.4277 132.7844,30.4277" id="curly_2_Fill-6" fill-opacity=".16" fill="#000" />
    </g>
</g>
        </g>
    </g>
</svg>