<svg xmlns="http://www.w3.org/2000/svg" xmlns:xlink="http://www.w3.org/1999/xlink" width="264px" height="280px" viewBox="0 0 264 280" version="1.1">
    <title id="circle_Title">Avataaar/Circle</title>
    <desc>Created with python_avatars</desc>
    <defs>
        <circle id="circle_path-1" cx="120" cy="120" r="120" />
        <path d="M-3.19744231e-14,160 L-3.19744231e-14,-1.42108547e-14 L264,-1.42108547e-14 L264,160 L252,160 C252,226.27417 198.27417,280 132,280 C65.72583,280 12,226.27417 12,160 L12,160 L-3.19744231e-14,160 Z" id="circle_path-3" />
        <path d="M100,0 C130.927946,-5.68137151e-15 156,25.072054 156,56 L156.000809,62.1660527 C161.675838,63.1185422 166,68.05429 166,74 L166,88 C166,94.0524166 161.519235,99.0582945 155.693975,99.8813638 C153.627928,119.686472 141.237929,136.421678 124.001014,144.610469 L124,163 L128,163 C167.764502,163 200,195.235498 200,235 L200,244 L0,244 L0,235 C-4.86974701e-15,195.235498 32.235498,163 72,163 L76,163 L75.9999836,144.610943 C58.7625487,136.422324 46.3721119,119.686854 44.3051107,99.8809698 C38.480765,99.0582945 34,94.0524166 34,88 L34,74 C34,68.053942 38.3246685,63.1179645 44.0001873,62.1658855 L44,56 C44,25.072054 69.072054,5.68137151e-15 100,0 Z" id="circle_path-5" />
        <path d="M83,36.3476251 C83,52.6289957 105.161905,65.8276544 132.5,65.8276544 C159.838095,65.8276544 182,52.6289957 182,36.3476251 C182,34.9853134 181.844841,33.6445843 181.544472,32.3313638 C210.784239,41.4879251 232,68.792221 232,101.051724 L232,110 L32,110 L32,101.051724 C32,68.3970853 53.7386736,40.8197864 83.5337207,32.0021267 C83.1821692,33.4207025 83,34.871494 83,36.3476251 Z" id="circle_path-7" />
        <rect id="circle_path-9" x="0" y="0" width="264" height="280" />
        <path d="M74,0 C114.869071,0 148,33.1309285 148,74 L148,84.1482318 L148,197.608051 C135.525121,187.236892 119.490913,181 102,181 L102,181 L98,181 L98,162.610951 C115.530782,154.282984 128.048193,137.114792 129.791419,116.867187 C135.569129,116.002364 140,111.018625 140,105 L140,105 L140,92 C140,87.3536213 137.359271,83.3240177 133.496777,81.3301515 C132.723933,81.0500337 131.951808,80.748163 131.180891,80.4262497 C130.794819,80.3202581 130.400778,80.2331546 130,80.1659169 L130,80.1659169 L130.000458,79.9172528 C117.224481,74.2339715 104.877985,63.0706967 96.1104311,47.8848473 C93.1752556,42.8009742 90.8310687,37.5951441 89.0661426,32.3970356 C80.4313947,42.9409152 67.7445474,53.6023901 52.3415164,62.4953343 C42.777598,68.0170651 33.1467898,72.2910056 24,75.2659587 L24.0003852,137.246608 C29.6019576,148.318362 38.7728825,157.277529 50,162.610951 L50,162.610951 L50,181 L46,181 C38.3273639,181 30.9350359,182.200142 24.0004995,184.422941 L24,230 C24,244.105888 13.5691766,255.775526 0,257.716445 L0,74 C0,33.1309285 33.1309285,0 74,0 Z" id="circle_path-11" />
    </defs>
    <g id="circle_Avataaar/Circle" stroke="none" stroke-width="1" fill="none" fill-rule="evenodd">
        <g id="circle_Circle" transform="translate(12.000000, 40.000000)">
            <mask id="circle_mask-2" fill="white">
                <use xlink:href="#circle_path-1" />
            </mask>
            <use id="circle_Background-Color" fill="#525252" xlink:href="#circle_path-1" />
            <g id="circle_Fabric-Color" mask="url(#circle_mask-2)" fill="">
                <rect id="circle_ðŸ–Color" x="0" y="0" width="240" height="240" />
            </g>
        </g>
        <mask id="circle_mask-4" fill="white">
            <use xlink:href="#circle_path-3" />
        </mask>
        <g id="circle_Mask" />
        <g id="circle_Avataaar" mask="url(#circle_mask-4)">
            <g id="circle_Body" transform="translate(32.000000, 36.000000)">
                <mask id="circle_mask-6" fill="white">
                    <use xlink:href="#circle_path-5" />
                </mask>
                <use fill="#D0C6AC" xlink:href="#circle_path-5" />
                <g id="circle_Skin-Color" mask="url(#circle_mask-6)" fill="#614335">
                    <g transform="translate(-32.000000, 0.000000)" id="circle_Color">
                        <rect x="0" y="0" width="264" height="244" />
                    </g>
                </g>
                <path d="M44,94 C44,124.927946 69.072054,150 100,150 C130.927946,150 156,124.927946 156,94 L156,94 L156,102 C156,132.927946 130.927946,158 100,158 C69.072054,158 44,132.927946 44,102 Z" id="circle_Neck-Shadow" fill-opacity="0.100000001" fill="#000000" mask="url(#circle_mask-6)" />
            </g>
            <g id="circle_Clothing" transform="translate(0.000000, 170.000000)">
                
            <defs>
        <path d="M232,101.051724 L232,110 L32,110 L32,101.051724 C32,65.1384292 58.2938256,35.3663869 92.6806879,29.9363855 C93.5844961,35.0070695 96.1171239,39.8245023 100.236125,43.5389794 L100.236125,43.5389794 L129.321203,69.7676333 C130.843316,71.1402598 133.156684,71.1402598 134.678797,69.7676333 L134.678797,69.7676333 L163.763875,43.5389794 C164.189462,43.1551884 164.601167,42.7562772 164.998197,42.3430127 C168.413626,38.7879269 170.516642,34.4534098 171.319249,29.9385703 C205.706684,35.3669637 232,65.1387771 232,101.051724 Z" id="shirt_v_neck_path-1" />
    </defs>
    <g id="shirt_v_neck_Clothing/Shirt-V-Neck" stroke="none" stroke-width="1" fill="none" fill-rule="evenodd">
        <mask id="shirt_v_neck_mask-2" fill="white">
            <use xlink:href="#shirt_v_neck_path-1" />
        </mask>
        <use id="shirt_v_neck_Clothes" fill="#E6E6E6" xlink:href="#shirt_v_neck_path-1" />
        <g id="shirt_v_neck_Fabric-Color" mask="url(#shirt_v_neck_mask-2)" fill="#B1E2FF">
            <rect id="shirt_v_neck_ðŸ–Color" x="0" y="0" width="264" height="110" />
        </g>
    </g>
</g>
            <g id="circle_Face" transform="translate(76.000000, 82.000000)" fill="#000000">
                <g id="circle_Mouth" transform="translate(2.000000, 52.000000)">    
                    
                <defs>
        <path d="M35.117844,15.1280772 C36.1757121,24.6198025 44.2259873,32 54,32 C63.8042055,32 71.8740075,24.574136 72.8917593,15.0400546 C72.9736685,14.272746 72.1167429,13 71.042767,13 C56.1487536,13 44.7379213,13 37.0868244,13 C36.0066168,13 35.0120058,14.1784435 35.117844,15.1280772 Z" id="smile_path-1" />
    </defs>
    <g id="smile_Mouth/Smile" stroke="none" stroke-width="1" fill="none" fill-rule="evenodd">
        <mask id="smile_mask-2" fill="white">
            <use xlink:href="#smile_path-1" />
        </mask>
        <use id="smile_Mouth" fill-opacity="0.699999988" fill="#000000" xlink:href="#smile_path-1" />
        <path d="M44,2 L65,2 C67.7614237,2 70,4.23857625 70,7 L70,13 C70,15.7614237 67.7614237,18 65,18 L44,18 C41.2385763,18 39,15.7614237 39,13 L39,7 C39,4.23857625 41.2385763,2 44,2 Z" id="smile_Teeth" fill="#FFFFFF" mask="url(#smile_mask-2)" />
        <g id="smile_Tongue" mask="url(#smile_mask-2)" fill="#FF4F6D">
            <g transform="translate(38.000000, 24.000000)">
                <circle cx="11" cy="11" r="11" />
                <circle cx="21" cy="11" r="11" />
            </g>
        </g>
    </g>
</g>
                <g id="circle_Nose" transform="translate(28.000000, 40.000000)" fill-opacity="0.16">
                    
                <g id="default_Nose/Default" stroke="none" stroke-width="1" fill="none" fill-rule="evenodd" fill-opacity="0.16">
        <path d="M16,8 C16,12.418278 21.372583,16 28,16 L28,16 C34.627417,16 40,12.418278 40,8" id="default_Nose" fill="#000000" />
    </g>
</g>
                <g id="circle_Eyes" transform="translate(0.000000, 8.000000)">
                    
                <g id="x_dizzy_Eyes/X-Dizzy-ðŸ˜µ" stroke="none" stroke-width="1" fill="none" fill-rule="evenodd" fill-opacity="0.599999964">
        <path d="M23.5,13.3 L29,18.799 L34.5,13.3 C34.9,12.9 35.6,12.9 36.1,13.3 L37.7,14.9 C38.1,15.3 38.1,16 37.7,16.5 L32.2,22 L37.7,27.5 C38.1,27.9 38.1,28.6 37.7,29.1 L36.1,30.7 C35.7,31.1 35,31.1 34.5,30.7 L29,25.2 L23.5,30.7 C23.1,31.1 22.4,31.1 21.9,30.7 L20.3,29.1 C19.9,28.7 19.9,28 20.3,27.5 L25.799,22 L20.3,16.5 C19.9,16 19.9,15.3 20.3,14.9 L21.9,13.3 C22.3,12.9 23,12.9 23.5,13.3 Z" id="x_dizzy_Eye" fill="#000000" fill-rule="nonzero" />
        <path d="M77.5,13.3 L83,18.799 L88.5,13.3 C88.9,12.9 89.6,12.9 90.1,13.3 L91.7,14.9 C92.1,15.3 92.1,16 91.7,16.5 L86.2,22 L91.7,27.5 C92.1,27.9 92.1,28.6 91.7,29.1 L90.1,30.7 C89.7,31.1 89,31.1 88.5,30.7 L83,25.2 L77.5,30.7 C77.1,31.1 76.4,31.1 75.9,30.7 L74.3,29.1 C73.9,28.7 73.9,28 74.3,27.5 L79.799,22 L74.3,16.5 C73.9,16 73.9,15.3 74.3,14.9 L75.9,13.3 C76.3,12.9 77,12.9 77.5,13.3 Z" id="x_dizzy_Eye" fill="#000000" fill-rule="nonzero" />
    </g>
</g>
                <g id="circle_Eyebrow" fill-opacity="0.599999964">
                    
                <g id="up_down_natural_Eyebrow/Natural/Up-Down-Natural" stroke="none" stroke-width="1" fill="none" fill-rule="evenodd" fill-opacity="0.599999964">
        <path d="M22.7663531,1.57844898 L23.6772984,1.17582144 C28.9190996,-0.905265751 36.8645466,-0.0328729562 41.7227321,2.29911638 C42.2897848,2.57148957 41.9021563,3.4519421 41.3211012,3.40711006 C26.4021788,2.25602197 16.3582869,11.5525942 12.9460869,17.8470939 C12.8449215,18.0337142 12.5391523,18.05489 12.4635344,17.8808353 C10.156283,12.5620676 16.9134476,3.89614725 22.7663531,1.57844898 Z" id="up_down_natural_Eye-Browse-Reddit" fill="#000000" />
        <path d="M86.535177,12.0246305 C92.3421916,12.2928751 101.730304,16.5124899 101.488432,22.3684172 C101.480419,22.5600881 101.1989,22.6442368 101.06135,22.496811 C98.306449,19.5374968 78.7459953,16.5471364 71.8564209,18.1317995 C71.2258949,18.2770375 70.7468448,17.6550104 71.1462176,17.2056651 C74.5683263,13.3574126 81.3327077,11.7792465 86.535177,12.0246305 Z" id="up_down_natural_Eyebrow" fill="#000000" transform="translate(86.246508, 17.285912) rotate(5.000000) translate(-86.246508, -17.285912) " />
    </g>
</g>
            </g>
            <g id="circle_Top">
                
            <defs>
        <path d="M167.308863,35.006118 C147.121091,23.3065109 127.128954,25.2219854 112.036894,29.0299707 C96.9448338,32.8379559 88.0168242,43.6513048 80.3566792,59.6480618 C76.5956048,67.5028569 74.3660182,76.7914798 74.0230569,85.4813651 C73.8884429,88.8932666 74.3484305,92.415154 75.267729,95.7003546 C75.6049405,96.9061873 77.4232441,101.086987 77.9224658,97.70885 C78.0885348,96.584253 77.4804043,95.0327505 77.4215529,93.8376154 C77.3444374,92.2693977 77.4273028,90.6807875 77.5341822,89.1149098 C77.7340739,86.1874141 78.2559568,83.3154127 79.1847257,80.524647 C80.5119249,76.5367405 82.2013644,72.212859 84.7874413,68.8480942 C91.1883705,60.5205939 102.268658,60.045883 111.066257,55.4635848 C110.302881,56.8686624 107.359637,59.1432635 108.379389,60.7268592 C109.083576,61.8207003 111.749474,61.4890712 113.022219,61.4539693 C116.370996,61.3623702 119.734993,60.7796791 123.042844,60.306974 C128.255923,59.5618115 133.140585,58.0517626 138.046555,56.2181078 C142.06299,54.7164165 146.650012,53.3257139 149.66868,50.1404701 C154.539813,55.1881187 160.809849,59.9345599 167.070414,63.1428706 C172.68835,66.0222267 181.748751,67.461069 185.182761,73.3006826 C189.2479,80.2147477 187.37751,88.7073939 188.619138,96.2008069 C189.091302,99.05041 190.164155,98.986558 190.751315,96.4378281 C191.748406,92.1082634 192.219217,87.6102098 191.901961,83.1592929 C191.183568,73.1114668 187.496636,46.7057251 167.308863,35.006118 Z" id="short_round_path-1" />
    </defs>
    <g id="short_round_Top/Short-Hair/Short-Round" stroke="none" stroke-width="1" fill="none" fill-rule="evenodd" transform="translate(-1 0)">
        <g id="short_round_Facial-Hair" transform="translate(49.000000, 72.000000)"><defs>
        <path d="M64.7214121,63.4643353 C71.8381194,62.1698595 81.796173,63.6461901 84.1074639,67.092174 L83.998,66.939 L84.010445,66.9215199 C86.5309935,63.5977488 96.2765075,62.1914341 103.274279,63.4643353 C112.927938,65.2207224 117.019147,75.7669804 115.780485,77.6791014 C114.655476,79.4153191 111.53642,77.7739966 109.119711,77.6298353 C104.118941,77.3322546 94.948229,81.5102869 86.0463327,76.6891498 C85.2347477,76.2495714 84.5386341,75.6083797 83.9975585,74.8390687 C83.4573866,75.6083797 82.7612729,76.2495714 81.949688,76.6891498 C73.0477917,81.5102869 63.8767499,77.3322546 58.8763101,77.6298353 C56.459601,77.7739966 53.3405442,79.4153191 52.2155358,77.6791014 C50.9768736,75.7669804 55.0680827,65.2207224 64.7214121,63.4643353 Z" id="moustache_magnum_path-1" />
    </defs>
    <g id="moustache_magnum_Facial-Hair/Moustache-Magnum" stroke="none" stroke-width="1" fill="none" fill-rule="evenodd">
        <mask id="moustache_magnum_mask-2" fill="white">
            <use xlink:href="#moustache_magnum_path-1" />
        </mask>
        <use id="moustache_magnum_Hey..." fill="#28354B" xlink:href="#moustache_magnum_path-1" />
        <g id="moustache_magnum_Facial-Hair-Color" mask="url(#moustache_magnum_mask-2)" fill="#C93305">
            <rect id="moustache_magnum_Color" x="0" y="0" width="168" height="152" />
        </g>
    </g>
</g>
        <mask id="short_round_mask-2" fill="white">
            <use xlink:href="#short_round_path-1" />
        </mask>
        <use id="short_round_Short-Hair" fill="#28354B" xlink:href="#short_round_path-1" />
        <g id="short_round_Hair-Color" mask="url(#short_round_mask-2)" fill="#E8E1E1">
            <g transform="translate(1.000000, 0.000000)" id="short_round_Color">
                <rect x="0" y="0" width="264" height="280" />
            </g>
        </g>
        <g id="short_round_Accessory" transform="translate(62.000000, 85.000000)"><g id="sunglasses_2_Accesories/Sunglasses" stroke="none" stroke-width="1" fill="none" fill-rule="evenodd"><path d="M88.420644,10.0315667 L111.711555,10.4879 L112.418885,10.5173904 C116.716907,10.7306495 119.842183,11.5608236 122.25907,15.0052776 L123.270648,15.0612226 C125.98538,15.2235685 128.815928,15.5199023 131.241565,16.6393667 C134.626236,18.2013667 135.149293,21.7387 130.882414,22.2260333 C128.960673,22.4457 127.036739,22.0827 125.144457,21.7450333 L124.805075,21.6912775 C125.908933,31.1522104 118.598088,42.5597165 110.577413,46.0372333 C99.6003746,50.7965667 87.3375086,45.5292333 81.5337832,36.0035667 C78.9077874,31.6933472 77.3913647,25.4882292 77.0679314,20.1428905 C76.2485064,19.7454964 75.4674464,19.2201465 74.7189648,18.8553 C72.7120473,17.8773 69.3809643,17.7566333 67.2126933,18.8553 C66.4674989,19.2329059 65.6844252,19.7618811 64.860867,20.1592462 C64.5358863,25.500774 63.019749,31.6993553 60.3955746,36.0058333 C54.5921826,45.5318333 42.3293166,50.7991667 31.352278,46.0395 C23.3308758,42.5619527 16.0191895,31.1527353 17.1248105,21.6913039 L16.7871634,21.7450333 L15.9116787,21.9004644 C14.302955,22.1806014 12.6752968,22.4119051 11.0492092,22.2260333 C6.7823325,21.7387 7.30538922,18.2013667 10.6900582,16.6393667 C13.4186633,15.3800781 16.6596437,15.1623841 19.6724863,15.0063698 C22.088769,11.5628588 25.2136434,10.7331687 29.5106444,10.5199823 L30.2178029,10.4905 L54.367281,10.0138705 C59.1910659,9.92297948 63.3004405,10.2797475 64.5415862,14.6398662 C66.6301126,13.8258114 69.0470363,13.3846333 70.8914864,13.3846333 C72.750063,13.3846333 75.2403142,13.8326884 77.3827667,14.6590316 C78.6884926,10.0210681 83.2241204,9.89209727 88.420644,10.0315667 Z M54.6792964,17.2841303 L53.1743719,17.2627916 C48.2545196,17.2171575 28.0180517,17.1530306 25.6158944,19.1491667 C23.2262624,21.1345 24.5340925,27.0731667 25.1565036,29.5561667 C26.2203032,33.7998333 28.6396056,38.0601667 32.1723805,40.7525 C35.160879,43.03 38.9870799,43.1875781 42.598636,42.8394006 L42.8137377,42.8154434 C42.5755438,42.8270989 44.279595,42.5883296 44.6288896,42.5222918 L44.6612747,42.5158333 C45.7297416,42.2861667 46.7985419,41.9835 47.8106684,41.5641667 C49.7165732,40.7748333 51.5084639,39.6188333 52.9776475,38.1685 C55.7666627,35.4145 56.9648125,31.7228333 57.6852359,27.9548333 C58.1572949,25.4871667 58.5553446,22.6705 58.1459601,20.1651667 C57.7671628,17.8464167 56.7581109,17.3549128 54.6792964,17.2841303 L54.6792964,17.2841303 Z M90.2432286,17.2498018 L87.6805515,17.2725667 C85.3089217,17.2952333 84.1877816,17.6892333 83.7837311,20.1625667 C83.3743466,22.6679 83.7723963,25.4845667 84.244122,27.9522333 C84.9648787,31.7202333 86.1630285,35.4119 88.9520437,38.1659 C90.4212273,39.6162333 92.213118,40.7722333 94.1190228,41.5619 C94.9624616,41.9110667 95.8452571,42.1794463 96.7344192,42.392116 L97.2684165,42.5132333 C97.5131654,42.5657289 99.2030063,42.8028032 99.1366495,42.8130415 L98.9855976,42.8019336 C102.697275,43.192883 106.673335,43.1001622 109.757311,40.7499 C113.290086,38.0575667 115.709388,33.7975667 116.773188,29.5539 L116.961141,28.7771479 C117.606864,25.9999642 118.480835,20.9475202 116.313797,19.1465667 C114.107164,17.3129068 96.8513244,17.2177679 90.2432286,17.2498018 L90.2432286,17.2498018 Z" id="sunglasses_2_Shape" fill-opacity=".16" fill="#000" /><g id="sunglasses_2_Sunglasses" transform="translate(8.000000, 8.000000)"><path d="M47.0104611,6.27728008 C49.5212682,6.30134922 50.7082016,6.72633117 51.1359635,9.39189846 C51.5693724,12.0919529 51.1479634,15.1275382 50.648202,17.7869984 C49.8855011,21.8478573 48.6170388,25.8264499 45.6643523,28.794498 C44.1089507,30.3575551 42.2119044,31.6034024 40.1941529,32.4540848 C39.1226305,32.9060098 37.9911085,33.2322006 36.8599395,33.4797175 C36.5292357,33.5519249 33.7060778,33.9478084 35.4375958,33.7466335 C31.3967988,34.2161613 27.0129452,34.1974808 23.6381438,31.5793333 C19.8980507,28.6777448 17.3367734,24.0862872 16.2105455,19.5127916 C15.5516086,16.8368063 14.1670294,10.4365709 16.6968952,8.29693227 C19.5948762,5.84547255 47.0104611,6.27728008 47.0104611,6.27728008 L47.0104611,6.27728008 Z" id="sunglasses_2_shades" fill-opacity=".7" fill="#150662" /><path d="M78.9192315,6.27468008 C76.4084239,6.29910846 75.2214902,6.72373117 74.7937283,9.38929846 C74.3603192,12.0893529 74.7817283,15.1249382 75.2811369,17.7843984 C76.0441909,21.8452573 77.3126534,25.8238499 80.2653406,28.791898 C81.8207425,30.3549551 83.7177893,31.6008024 85.7355412,32.4518441 C86.8070638,32.9034098 87.938586,33.2296006 89.0697553,33.4771175 C89.4004591,33.5493249 92.2232647,33.9455676 90.4920992,33.7440335 C94.5328971,34.2135613 98.9167517,34.1948808 102.291554,31.5767333 C106.031648,28.6751448 108.592926,24.0840464 109.719154,19.5105508 C110.378091,16.8342063 111.762317,10.4343302 109.232804,8.29433227 C106.334822,5.84287255 78.9192315,6.27468008 78.9192315,6.27468008 L78.9192315,6.27468008 Z" id="sunglasses_2_shades" fill-opacity=".7" fill="#150662" /><g id="sunglasses_2_Glasses" fill="#252C2F"><path d="M46.2491397,7.27516667 C48.6207695,7.2975 49.7419096,7.69183333 50.1459601,10.1651667 C50.5553446,12.6705 50.1572949,15.4871667 49.6852359,17.9548333 C48.9648125,21.7228333 47.7666627,25.4145 44.9776475,28.1685 C43.5084639,29.6188333 41.7165732,30.7748333 39.8106684,31.5641667 C38.7985419,31.9835 37.7297416,32.2861667 36.6612747,32.5158333 C36.3489024,32.5828333 33.6822357,32.9501667 35.3177735,32.7635 C31.5009631,33.1991667 27.3601122,33.1818333 24.1723805,30.7525 C20.6396056,28.0601667 18.2203032,23.7998333 17.1565036,19.5561667 C16.5340925,17.0731667 15.2262624,11.1345 17.6158944,9.14916667 C20.3532365,6.8745 46.2491397,7.27516667 46.2491397,7.27516667 L46.2491397,7.27516667 Z M22.2178029,0.4905 C16.7774562,0.677833333 13.1466691,1.63383333 10.4633337,7.06916667 C5.54571911,17.0301667 13.9627711,31.9688333 23.352278,36.0395 C34.3293166,40.7991667 46.5921826,35.5318333 52.3955746,26.0058333 C55.4689587,20.9621667 57.0224862,13.3231667 56.9224737,7.50383333 C56.7951245,0.0765 51.6071427,-0.1295 45.5090472,0.0338333333 L22.2178029,0.4905 Z" id="sunglasses_2_Frame" /><path d="M79.6805515,7.27256667 C77.3089217,7.29523333 76.1877816,7.68923333 75.7837311,10.1625667 C75.3743466,12.6679 75.7723963,15.4845667 76.244122,17.9522333 C76.9648787,21.7202333 78.1630285,25.4119 80.9520437,28.1659 C82.4212273,29.6162333 84.213118,30.7722333 86.1190228,31.5619 C87.1311493,31.9809 88.1999496,32.2835667 89.2684165,32.5132333 C89.5807888,32.5802333 92.2471221,32.9479 90.6119177,32.7609 C94.4287281,33.1965667 98.569579,33.1792333 101.757311,30.7499 C105.290086,28.0575667 107.709388,23.7975667 108.773188,19.5539 C109.395599,17.0705667 110.703095,11.1322333 108.313797,9.14656667 C105.576455,6.8719 79.6805515,7.27256667 79.6805515,7.27256667 L79.6805515,7.27256667 Z M103.711555,0.4879 C109.152235,0.675233333 112.783022,1.63156667 115.466357,7.06656667 C120.383639,17.0275667 111.96692,31.9662333 102.577413,36.0372333 C91.6003746,40.7965667 79.3375086,35.5292333 73.5337832,26.0035667 C70.4607325,20.9595667 68.907205,13.3205667 69.0068841,7.50123333 C69.1345667,0.0739 74.3225485,-0.1321 80.420644,0.0315666667 L103.711555,0.4879 Z" id="sunglasses_2_Frame" /><path d="M13.1969483,4.9267 C9.78501392,5.11836667 5.88606327,5.16436667 2.69005822,6.63936667 C-0.69461078,8.20136667 -1.2176675,11.7387 3.04920921,12.2260333 C4.97094906,12.4457 6.89488267,12.0827 8.78716336,11.7450333 C10.336903,11.4683667 12.4419791,11.5580333 13.9064752,10.9657 C16.6355213,9.86236667 16.4603333,4.74003333 13.1969483,4.9267" id="sunglasses_2_Frame" /><path d="M112.73467,4.9267 C116.146606,5.11836667 120.045559,5.16436667 123.241565,6.63936667 C126.626236,8.20136667 127.149293,11.7387 122.882414,12.2260333 C120.960673,12.4457 119.036739,12.0827 117.144457,11.7450333 C115.594717,11.4683667 113.489639,11.5580333 112.025143,10.9657 C109.295782,9.86236667 109.471283,4.74003333 112.73467,4.9267" id="sunglasses_2_Frame" /><path d="M73.1094302,7.01263333 C71.1631869,4.71263333 66.0912197,3.38463333 62.8914864,3.38463333 C59.6914198,3.38463333 54.7681378,4.71263333 52.8222279,7.01263333 C51.8407719,8.1723 51.8074344,9.72396667 53.5083137,10.4509667 C55.6262451,11.3566333 57.5174814,9.7143 59.2126933,8.8553 C61.3809643,7.75663333 64.7120473,7.8773 66.7189648,8.8553 C68.4271783,9.68796667 70.3050797,11.3566333 72.4233444,10.4509667 C74.1242237,9.72396667 74.0908862,8.1723 73.1094302,7.01263333" id="sunglasses_2_Frame" /></g></g></g></g>
    </g>
</g>
        </g>
    </g>
</svg>